<svg width="25" height="25" viewBox="0 0 25 25" fill="none" xmlns="http://www.w3.org/2000/svg">
<path fill-rule="evenodd" clip-rule="evenodd" d="M4.86446 15.9645C5.80214 15.0268 7.07391 14.5 8.39999 14.5H16.4C17.7261 14.5 18.9978 15.0268 19.9355 15.9645C20.8732 16.9021 21.4 18.1739 21.4 19.5V21.5C21.4 22.0523 20.9523 22.5 20.4 22.5C19.8477 22.5 19.4 22.0523 19.4 21.5V19.5C19.4 18.7044 19.0839 17.9413 18.5213 17.3787C17.9587 16.8161 17.1956 16.5 16.4 16.5H8.39999C7.60434 16.5 6.84128 16.8161 6.27867 17.3787C5.71606 17.9413 5.39999 18.7044 5.39999 19.5V21.5C5.39999 22.0523 4.95228 22.5 4.39999 22.5C3.84771 22.5 3.39999 22.0523 3.39999 21.5V19.5C3.39999 18.1739 3.92678 16.9021 4.86446 15.9645Z" fill="#676D75"/>
<path fill-rule="evenodd" clip-rule="evenodd" d="M12.4 4.5C10.7431 4.5 9.39999 5.84315 9.39999 7.5C9.39999 9.15685 10.7431 10.5 12.4 10.5C14.0568 10.5 15.4 9.15685 15.4 7.5C15.4 5.84315 14.0568 4.5 12.4 4.5ZM7.39999 7.5C7.39999 4.73858 9.63857 2.5 12.4 2.5C15.1614 2.5 17.4 4.73858 17.4 7.5C17.4 10.2614 15.1614 12.5 12.4 12.5C9.63857 12.5 7.39999 10.2614 7.39999 7.5Z" fill="#676D75"/>
</svg>
