<svg width="25" height="23" viewBox="0 0 25 23" fill="none" xmlns="http://www.w3.org/2000/svg">
<path d="M19.2 0.5H5.19998C2.43998 0.5 0.199982 2.74 0.199982 5.5V15.5C0.199982 18.26 2.43998 20.5 5.19998 20.5H12.2C12.75 20.5 13.2 20.05 13.2 19.5C13.2 18.95 12.75 18.5 12.2 18.5H5.19998C3.54998 18.5 2.19998 17.15 2.19998 15.5V7.5H22.2V12.5C22.2 13.05 22.65 13.5 23.2 13.5C23.75 13.5 24.2 13.05 24.2 12.5V5.5C24.2 2.74 21.96 0.5 19.2 0.5ZM2.19998 5.5C2.19998 3.85 3.54998 2.5 5.19998 2.5H19.2C20.85 2.5 22.2 3.85 22.2 5.5H2.19998ZM16.61 10.67C15.85 9.91 14.85 9.5 13.78 9.5H12.19C11.64 9.5 11.19 9.95 11.19 10.5V12.09C11.19 13.16 11.61 14.16 12.36 14.92L19.07 21.63C19.64 22.2 20.39 22.51 21.19 22.51C21.99 22.51 22.74 22.2 23.31 21.63C23.88 21.06 24.19 20.31 24.19 19.51C24.19 18.71 23.88 17.96 23.31 17.39L16.6 10.68L16.61 10.67ZM21.9 20.21C21.52 20.59 20.86 20.59 20.49 20.21L13.78 13.5C13.4 13.12 13.19 12.62 13.19 12.09V11.5H13.78C14.31 11.5 14.82 11.71 15.19 12.09L21.9 18.8C22.09 18.99 22.19 19.24 22.19 19.51C22.19 19.78 22.09 20.03 21.9 20.22V20.21Z" fill="#676D75"/>
</svg>
