<svg width="24" height="25" viewBox="0 0 24 25" fill="none" xmlns="http://www.w3.org/2000/svg">
<path d="M13.2966 1.09961C18.9014 1.09979 23.4001 5.36803 23.4001 10.54C23.4001 13.3838 22.0847 16.0029 19.7458 17.8037C19.5774 17.9334 19.4901 18.1426 19.5163 18.3535L19.8962 21.3916C19.9496 21.857 19.7792 22.2904 19.4392 22.584L19.2819 22.7012C19.0629 22.8412 18.8069 22.917 18.5583 22.917C18.3163 22.9169 18.0782 22.8546 17.864 22.7246L17.8591 22.7217L13.3786 20.0635C13.3124 20.0243 13.2393 19.9989 13.1638 19.9873L13.0866 19.9805L12.7507 19.9678C12.416 19.9513 12.0882 19.9218 11.7761 19.875H11.7751C11.6842 19.8615 11.6097 19.8021 11.5769 19.7168C11.5451 19.6343 11.5589 19.5541 11.6179 19.4854C12.4469 18.5186 12.8796 17.3526 12.8796 16.1123C12.8793 13.0348 10.1853 10.6104 6.97237 10.6104C5.77061 10.6104 4.60744 10.9404 3.62276 11.5859C3.54888 11.6329 3.46427 11.6389 3.3835 11.6035C3.32164 11.5726 3.27926 11.5241 3.2585 11.4727L3.24483 11.4209C3.21307 11.1237 3.1921 10.8348 3.19209 10.54C3.19209 5.36792 7.69161 1.09961 13.2966 1.09961ZM13.2966 1.55273C8.22391 1.55273 3.9951 5.24732 3.68135 9.97559C3.66784 10.18 3.75949 10.3767 3.92451 10.498C4.08951 10.6194 4.30476 10.6489 4.4958 10.5752C5.26732 10.277 6.09973 10.1123 6.96162 10.1123C10.5189 10.1126 13.3444 12.826 13.3444 16.0908V16.0977C13.3544 16.9785 13.1445 17.8338 12.7487 18.625C12.6524 18.8177 12.6663 19.0474 12.7858 19.2266C12.9056 19.4058 13.1128 19.5075 13.3278 19.4922C13.341 19.4913 13.3667 19.4941 13.3991 19.5156C13.4077 19.5213 13.4166 19.527 13.4255 19.5322L18.1071 22.3135V22.3115C18.2673 22.4094 18.4467 22.4571 18.6306 22.4414C18.81 22.426 18.9484 22.3558 19.0368 22.2969L19.0358 22.2949C19.227 22.1698 19.4787 21.8845 19.4206 21.4443H19.4226L18.988 17.9229C18.9778 17.8209 19.021 17.7306 19.0896 17.6807C21.5142 15.978 22.9245 13.3684 22.9245 10.5176C22.9245 5.53191 18.5673 1.55291 13.2966 1.55273Z" stroke="#676D75" stroke-width="1.2" stroke-linejoin="round"/>
<path d="M6.98339 10.1235C10.5408 10.1237 13.3662 12.8371 13.3662 16.1021C13.3661 17.4311 12.8819 18.7454 11.9902 19.7886L11.9844 19.7964C10.8385 21.185 9.11552 22.007 7.19823 22.0688C7.12226 22.0713 7.0478 22.0885 6.97851 22.1187L6.91113 22.1528L4.18652 23.771C4.03801 23.8587 3.8756 23.8999 3.70898 23.8999C3.53159 23.8998 3.3665 23.8535 3.20995 23.7515L3.208 23.7505L3.09765 23.6685C2.85729 23.4635 2.73849 23.1643 2.77441 22.8472L2.99706 21.1372C3.02365 20.9313 2.94217 20.7263 2.78124 20.5952C1.40668 19.4757 0.599679 17.8234 0.599602 16.1021C0.599602 14.1383 1.62762 12.2923 3.37304 11.1802L3.37695 11.1772C4.42824 10.4937 5.67789 10.1235 6.98339 10.1235ZM6.97167 10.5991C5.76926 10.5992 4.60515 10.9294 3.62011 11.5757C2.02963 12.5942 1.06445 14.2757 1.06445 16.1021C1.06453 17.8585 1.92697 19.4578 3.42187 20.481H3.42284C3.4931 20.5298 3.53385 20.612 3.52636 20.7085L3.28222 22.6147C3.25309 22.8422 3.35619 23.0659 3.54784 23.1919C3.7396 23.3179 3.9863 23.3237 4.18359 23.2065L6.84863 21.6226L6.8496 21.6235C6.90818 21.5894 6.95013 21.5826 6.97167 21.5825C8.77999 21.5825 10.5078 20.8079 11.6133 19.4644C12.4333 18.4929 12.8789 17.3325 12.8789 16.0903C12.8787 13.023 10.1838 10.5991 6.97167 10.5991Z" stroke="#676D75" stroke-width="1.2" stroke-linejoin="round"/>
<path d="M9 8H18" stroke="#676D75" stroke-width="1.2" stroke-linecap="round"/>
<path d="M12 12.5L18 12.5" stroke="#676D75" stroke-width="1.2" stroke-linecap="round"/>
<path d="M4.5 14.75H9" stroke="#676D75" stroke-width="1.2" stroke-linecap="round"/>
<path d="M6 17.75H9" stroke="#676D75" stroke-width="1.2" stroke-linecap="round"/>
</svg>
