<svg width="22" height="22" viewBox="0 0 22 22" fill="none" xmlns="http://www.w3.org/2000/svg">
<path d="M6.55342 16.2062L13.1745 13.8276C13.2786 13.7901 13.3731 13.7301 13.4514 13.6519C13.5296 13.5736 13.5896 13.4791 13.6271 13.375L16.006 6.75392C16.0542 6.62006 16.0632 6.47526 16.0321 6.33644C16.0011 6.19762 15.9312 6.0705 15.8306 5.96991C15.73 5.86933 15.6029 5.79942 15.4641 5.76835C15.3252 5.73728 15.1804 5.74633 15.0466 5.79445L8.42475 8.17262C8.32065 8.21005 8.22612 8.27004 8.14793 8.34829C8.06974 8.42654 8.00983 8.52112 7.9725 8.62525L5.59432 15.2467C5.54625 15.3805 5.53722 15.5253 5.56828 15.664C5.59934 15.8028 5.66921 15.9299 5.76974 16.0304C5.87027 16.131 5.99732 16.2009 6.13608 16.2321C6.27483 16.2632 6.41957 16.2542 6.55342 16.2062ZM9.26444 9.46495L14.0563 7.74377L12.3352 12.5353L7.54365 14.2565L9.26444 9.46495Z" fill="#676D75"/>
<path d="M10.8 21.5C12.8767 21.5 14.9068 20.8842 16.6335 19.7304C18.3602 18.5767 19.706 16.9368 20.5007 15.0182C21.2955 13.0996 21.5034 10.9884 21.0982 8.95156C20.6931 6.91476 19.6931 5.04383 18.2246 3.57538C16.7562 2.10693 14.8852 1.1069 12.8484 0.701759C10.8116 0.296614 8.70044 0.504549 6.78182 1.29927C4.8632 2.09399 3.22332 3.4398 2.06956 5.16652C0.91581 6.89323 0.299995 8.9233 0.299995 11C0.303132 13.7838 1.41039 16.4527 3.37884 18.4212C5.34729 20.3896 8.01618 21.4969 10.8 21.5ZM10.8 2C12.58 2 14.3201 2.52785 15.8001 3.51678C17.2802 4.50571 18.4337 5.91132 19.1149 7.55585C19.7961 9.20039 19.9743 11.01 19.6271 12.7558C19.2798 14.5016 18.4226 16.1053 17.164 17.364C15.9053 18.6226 14.3016 19.4798 12.5558 19.8271C10.81 20.1743 9.00038 19.9961 7.35584 19.3149C5.71131 18.6337 4.3057 17.4802 3.31677 16.0001C2.32784 14.5201 1.8 12.78 1.8 11C1.8026 8.61385 2.75164 6.32618 4.43891 4.63892C6.12617 2.95165 8.41385 2.00261 10.8 2Z" fill="#676D75"/>
</svg>
