<svg width="24" height="24" viewBox="0 0 24 24" fill="none" xmlns="http://www.w3.org/2000/svg">
<path fill-rule="evenodd" clip-rule="evenodd" d="M5.567 15.562C5.70701 15.6787 5.77244 15.8623 5.73775 16.0413C5.70306 16.2202 5.57376 16.3661 5.40028 16.422C5.22681 16.4779 5.03665 16.435 4.904 16.31C3.63241 15.1813 2.6485 13.7654 2.034 12.18C1.9893 12.0642 1.9893 11.9359 2.034 11.82C4.09 6.51202 9.943 3.75602 15.327 5.52402C15.586 5.61267 15.7255 5.89304 15.6401 6.15308C15.5547 6.41313 15.2761 6.55617 15.015 6.47402C10.197 4.89302 4.965 7.31002 3.038 12C3.59908 13.3645 4.46442 14.5828 5.568 15.562H5.567ZM12.62 8.04802C12.89 8.09339 13.0734 8.34755 13.0312 8.61812C12.989 8.88868 12.737 9.07499 12.466 9.03602C11.5194 8.88727 10.5586 9.1997 9.88054 9.87679C9.20245 10.5539 8.88863 11.5142 9.036 12.461C9.06315 12.6379 8.99389 12.8158 8.85431 12.9277C8.71474 13.0396 8.52604 13.0686 8.35931 13.0037C8.19258 12.9388 8.07315 12.7899 8.046 12.613C7.85013 11.3509 8.26879 10.0711 9.17274 9.16873C10.0767 8.26637 11.3572 7.84995 12.619 8.04802H12.62ZM11.456 15.963C11.192 15.9159 11.0121 15.669 11.0484 15.4032C11.0846 15.1375 11.324 14.9477 11.591 14.973C12.513 15.1002 13.4418 14.7923 14.1051 14.1395C14.7685 13.4867 15.0913 12.5629 14.979 11.639C14.9499 11.458 15.0221 11.2756 15.1673 11.1637C15.3124 11.0517 15.5072 11.0281 15.6748 11.1023C15.8425 11.1764 15.9561 11.3363 15.971 11.519C16.1199 12.7503 15.6893 13.9809 14.8052 14.8507C13.9212 15.7205 12.6836 16.131 11.455 15.962L11.456 15.963ZM3.854 20.853C3.65876 21.0485 3.34201 21.0488 3.1465 20.8535C2.95099 20.6583 2.95076 20.3415 3.146 20.146L20.146 3.14602C20.3415 2.95051 20.6585 2.95051 20.854 3.14602C21.0495 3.34153 21.0495 3.65851 20.854 3.85402L3.854 20.854V20.853ZM18.433 8.43902C18.2363 8.25371 18.2225 7.94568 18.4017 7.74347C18.581 7.54125 18.8884 7.51803 19.096 7.69102C20.3676 8.81978 21.3515 10.2356 21.966 11.821C22.0107 11.9369 22.0107 12.0652 21.966 12.181C19.909 17.488 14.057 20.244 8.673 18.476C8.50118 18.422 8.37172 18.2797 8.33409 18.1035C8.29647 17.9274 8.35649 17.7446 8.49123 17.6251C8.62597 17.5055 8.81458 17.4677 8.985 17.526C13.803 19.108 19.035 16.692 20.962 12.001C20.4009 10.6365 19.5356 9.4182 18.432 8.43902H18.433Z" fill="#121924"/>
</svg>
