<svg width="25" height="25" viewBox="0 0 25 25" fill="none" xmlns="http://www.w3.org/2000/svg">
<path fill-rule="evenodd" clip-rule="evenodd" d="M11.9861 1.71065C12.3472 1.42978 12.8528 1.42978 13.2139 1.71065L22.2139 8.71065C22.4575 8.9001 22.6 9.19141 22.6 9.5V20.5C22.6 21.2957 22.2839 22.0587 21.7213 22.6213C21.1587 23.1839 20.3957 23.5 19.6 23.5H5.60001C4.80436 23.5 4.04129 23.1839 3.47869 22.6213C2.91608 22.0587 2.60001 21.2957 2.60001 20.5V9.5C2.60001 9.19141 2.74248 8.9001 2.98607 8.71065L11.9861 1.71065ZM4.60001 9.98908V20.5C4.60001 20.7652 4.70536 21.0196 4.8929 21.2071C5.08044 21.3946 5.33479 21.5 5.60001 21.5H19.6C19.8652 21.5 20.1196 21.3946 20.3071 21.2071C20.4946 21.0196 20.6 20.7652 20.6 20.5V9.98908L12.6 3.76686L4.60001 9.98908Z" fill="#827BEB"/>
<path fill-rule="evenodd" clip-rule="evenodd" d="M8.60001 12.5C8.60001 11.9477 9.04772 11.5 9.60001 11.5H15.6C16.1523 11.5 16.6 11.9477 16.6 12.5V22.5C16.6 23.0523 16.1523 23.5 15.6 23.5C15.0477 23.5 14.6 23.0523 14.6 22.5V13.5H10.6V22.5C10.6 23.0523 10.1523 23.5 9.60001 23.5C9.04772 23.5 8.60001 23.0523 8.60001 22.5V12.5Z" fill="#827BEB"/>
</svg>
